<svg id="图层_1" data-name="图层 1" xmlns="http://www.w3.org/2000/svg" viewBox="0 0 262.91 417.11"><defs><style>.cls-1{fill:#bb9343;}</style></defs><title>savvy logo</title><path class="cls-1" d="M649.42,375.43c-4.25,2.89-8.52,5.76-12.76,8.68C626,391.47,626,391.48,617.38,382L599,361.75l26.17-20.19c-1.82-1.37-3.13-2.52-4.58-3.42-18.41-11.4-36.8-22.84-55.31-34.09-3.3-2-4.59-4.22-4.35-8.13,1.34-22.34,2.47-44.69,3.61-67,.5-9.73.85-19.47,1.33-30.47,5.73,20.48,11.78,39.62,16.29,59.12,2.79,12,7.91,21.6,18.43,28.14,1.55,1,2.85,2.32,4.32,3.42.31.23.83.17,1.78.33a32.76,32.76,0,0,0-1.28-3.52c-6.67-13.15-13.07-26.44-20.14-39.36-7.79-14.25-10.07-30.18-14.74-45.37-3.78-12.28-6.77-24.8-9.51-37.61l37.74,55,47.28-35.3.76.52c-.93,1.63-1.83,3.28-2.8,4.88-10.24,17-20.44,33.94-30.81,50.83a10.27,10.27,0,0,0-1.1,9.49c5.57,16.73,10.88,33.54,16.3,50.32.46,1.42,1,2.8,2.06,5.56l48.17-66.48.73.38q-4.87,20.51-9.74,41c-2.4,10.14-4.82,20.27-7.11,30.44a9.93,9.93,0,0,0,0,4.86c3.63,11.88,7.41,23.71,11.21,35.53.36,1.1,1,2.73,1.85,3,6.94,1.91,13.32,5.51,21.26,4,9.53-1.86,14.85-6.21,16.84-16.07s7.71-19,8.06-28.61-3.89-19.38-6.17-29.08q-5.26-22.36-10.58-44.7c0-.12.11-.28.42-.95l48.16,66.54c1-2.35,1.65-3.61,2.08-5,5.6-17.37,11.29-34.71,16.59-52.16a10.67,10.67,0,0,0-1.19-7.59C761,222.86,750.7,206,740.46,189a15.21,15.21,0,0,1-2.35-5.81l47.37,35.33,37.76-55,.63.29q-5.14,18.95-10.28,37.89C812,207.47,810,213.15,808.86,219c-4,20-15.36,36.69-23.85,54.66-2.41,5.1-5.05,10.09-6.9,15.9a24.84,24.84,0,0,0,3.12-1.88c16-13,15.94-13,21.41-32.93q7.43-27,15-54a6.5,6.5,0,0,1,.75-1.28c1,21,2,41.81,3,62.59.57,11.48,1.06,23,1.88,34.44.26,3.63-1.11,5.58-4.05,7.38-18.49,11.28-36.89,22.69-55.31,34.09-1.51.93-2.92,2-5,3.51l26.35,20.31-17.81,19.6c-9.18,10.1-9.16,10.08-20.26,2.43-4.09-2.82-8.27-5.51-13.51-9,2.19,8.93,4.16,16.41,5.86,23.94q8.95,39.66,17.67,79.38a10,10,0,0,1-.65,5.71c-5.38,12.39-10.26,25.07-16.7,36.9-4.57,8.4-11.24,15.68-17.12,23.35-8.32,10.85-16.78,21.59-25.18,32.38-4.36,5.61-6.51,5.57-10.86-.06-12.51-16.16-25.56-31.93-37.36-48.58-5.95-8.39-9.19-18.65-14.46-27.58-7.56-12.79-8.19-25.38-4.2-39.79,6.49-23.44,10.85-47.46,16.2-71.22,1-4.29,2.39-8.49,3.61-12.73Zm72.31-16.59L754.31,381V350.8c-2.12.63-3.71,1-5.23,1.56-6.32,2.36-12.66,4.69-18.91,7.24-2.42,1-3.66.28-4.79-1.85s0-3.07,1.57-4.44c3.48-3.1,7.06-6.27,9.78-10,5-7,9.53-14.32,14.18-21.55.92-1.43,1.54-3.06,2.91-5.84-7.61,0-14.07.53-20.4-.18-4.29-.48-5.64,1.06-6.72,4.63-3.46,11.45-7.22,22.81-10.68,34.25-.9,3-2.6,4.35-5.45,5.45-12.33,4.75-24.52,4.43-36.82,0-2.62-.95-4.42-2-5.3-5-3.35-11.16-7.13-22.19-10.45-33.36-1.27-4.28-2.59-7.42-8-5.87-2,.57-4.28.11-6.43.11H631.41l-.48,1.58c.88,1.54,1.69,3.12,2.65,4.6,4.59,7.09,9,14.34,13.94,21.16,2.72,3.74,6.3,6.91,9.77,10,1.52,1.36,2.8,2.19,1.6,4.43s-2.35,2.89-4.78,1.88c-5.53-2.29-11.14-4.36-16.75-6.46-2.23-.83-4.53-1.49-7.26-2.38v30.11L662.3,359c-.55,2.06-.85,3.22-1.18,4.38-3.32,11.64-6.62,23.29-10,34.92a12.75,12.75,0,0,0,1.26,10.09c6.09,11.55,11.86,23.26,17.79,34.89.74,1.44,1.64,2.8,2.89,4.9,4.08-4.44,7.69-8.34,11.28-12.26,4.54-4.95,11-5,15.54,0,3.6,3.92,7.21,7.82,11.26,12.22,1.17-1.9,2-3.1,2.7-4.4q6.3-12.3,12.53-24.65c8.62-17.14,8.58-17.14,2.89-35.4C726.81,375.79,724.47,367.87,721.73,358.84Zm-72.92,56.64-1.23.27c-.25.85-.56,1.68-.75,2.55-3.65,16.29-6.74,32.72-11.13,48.81-2.56,9.37-1.85,17.47,2.8,25.85,3.46,6.24,6,13,9.47,20.88l37-54.46L684,458a58.64,58.64,0,0,0-6.77,0c-4.82.56-7.54-1.44-9.61-5.85-4.76-10.14-10-20-15.14-30C651.31,419.9,650,417.7,648.81,415.48Zm88.09.17-1.41-.18c-1.17,2.09-2.4,4.15-3.49,6.28-5.36,10.52-10.75,21-16,31.62-1.62,3.3-3.77,5-7.52,4.68-2.8-.21-5.63,0-8.45,0l-.72,1.53,37,54.29c5.25-11.82,9.91-22.13,14.36-32.52.53-1.24.12-3-.19-4.47q-3.36-15.7-6.88-31.36C741.41,435.52,739.14,425.58,736.89,415.64ZM688.53,567.73V467.55l-1.44-.85a11.38,11.38,0,0,1-.9,2.16c-11,16.24-22,32.49-33.17,48.64-1.86,2.69-.8,4.38.82,6.45q15.6,19.92,31.11,39.91C685.76,564.89,686.73,565.79,688.53,567.73Zm7.11-1.37,1,.45c.95-1.06,2-2.06,2.83-3.18,10.28-13.18,20.47-26.44,30.88-39.51,2.21-2.78,2.21-4.78.24-7.63-10.64-15.38-21.1-30.89-31.64-46.34-.71-1-1.61-1.93-3.29-3.93ZM636.12,340l.9-1c-2.38-3.7-4.7-7.45-7.16-11.1-5-7.37-9.12-15.56-15.24-21.82-8.55-8.74-18.64-16-28-24-2.21-1.91-3.58-1.51-5.3.48-3.31,3.84-6.78,7.53-10.17,11.3-3.58,4-3.58,4.09,1.11,7q30.15,18.66,60.34,37.27C633.77,338.82,635,339.37,636.12,340Zm110.53-.23c1.71-.11,2.24,0,2.56-.19q32.34-19.94,64.66-39.9c2.25-1.39,2-2.68.41-4.38-3.84-4.18-7.71-8.36-11.37-12.69-2-2.35-3.48-2.11-5.66-.19-5.76,5.08-11.51,10.19-17.63,14.82a75.22,75.22,0,0,0-20,22.54C755.82,326.33,751.36,332.55,746.65,339.74Zm14.69-131.2-1,1c1,1.69,1.88,3.4,2.88,5.07,5,8.28,10,16.58,15.08,24.78a8.27,8.27,0,0,1,.91,7.73c-5.62,17-11,34.12-16.46,51.2-.47,1.49-.8,3-1.2,4.54a5,5,0,0,0,2.88-2.55c10.39-20.37,20.71-40.77,31.17-61.11,1.33-2.58.94-4.2-1.26-5.85-8.71-6.55-17.37-13.17-26.06-19.74C766,211.86,763.66,210.22,761.34,208.55Zm-136.77,0c-1.8.4-2.33.36-2.64.6-10.88,8.25-21.71,16.57-32.61,24.79-2.43,1.83-1.43,3.58-.4,5.59q15.27,29.92,30.48,59.87c.67,1.31,1.57,2.51,2.36,3.76a8,8,0,0,0-.25-4.9c-4.76-14.88-9.06-29.93-14.5-44.55-2.86-7.69-2.35-13.66,2.45-20.31C614.88,225.9,619.19,217.57,624.58,208.59Zm95.2,60.06c-.45,1.76-.74,2.23-.65,2.62,2.74,11.76,5.49,23.52,8.34,35.26.22.92,1.13,2.33,1.81,2.39,6.26.51,12.54.76,18.82,1.09l.61-1.26Zm-84.64,40.69c6.42,0,11.58-.1,16.73,0,3.11.08,4.6-1,5.31-4.23,2.4-10.9,5.17-21.71,7.74-32.57.2-.85-.09-1.81-.25-4.18Zm179.15-66.87-1.64-.16q-4.25,15.17-8.47,30.34a2.21,2.21,0,0,0,.21,1.74c3.57,4.2,7.22,8.33,10.85,12.48l1.38-.83ZM567.67,286.07l1.51.63c3.44-3.84,7-7.58,10.23-11.61.71-.9.48-2.9.12-4.24-2.33-8.73-4.81-17.42-7.28-26.11a14.51,14.51,0,0,0-1.24-2.47l-1,.21ZM622,377.61l1-.54V351.25c-5,3.86-9,6.85-12.89,10.08-.53.45-.55,2.45,0,3.06C613.92,368.89,618,373.22,622,377.61ZM762.26,352l-1.19.77v24.3l1.15.69c4.12-4.59,8.29-9.14,12.29-13.83a2.79,2.79,0,0,0-.38-2.7C770.27,358.08,766.24,355.09,762.26,352Zm-58.34,99.47.69-1.19c-3.56-3.7-7.07-7.46-10.74-11a2.82,2.82,0,0,0-2.74-.16c-4.06,3.59-8,7.36-11.91,11.08l.52,1.31ZM584.79,229.17c2.28-1.62,3.67-2.76,5.2-3.67,3.21-1.9,3.59-4,1.21-7s-4.55-6.55-6.82-9.83c-2-2.93-4.1-5.84-6.16-8.76l-1.27.64Zm214.74-.23,7.79-28.37-1.4-.69L790.78,222c2,1.69,3.43,3,5,4.26C796.66,227,797.68,227.66,799.53,228.94Z" transform="translate(-560.95 -163.52)"/></svg>