<?xml version="1.0" encoding="UTF-8"?>
<svg width="52px" height="52px" viewBox="0 0 52 52" version="1.1" xmlns="http://www.w3.org/2000/svg" xmlns:xlink="http://www.w3.org/1999/xlink">
    <!-- Generator: Sketch 49.3 (51167) - http://www.bohemiancoding.com/sketch -->
    <title>eye-link</title>
    <desc>Created with Sketch.</desc>
    <defs></defs>
    <g id="Page-1" stroke="none" stroke-width="1" fill="none" fill-rule="evenodd">
        <g id="DEMO" transform="translate(-253.000000, -1010.000000)">
            <g id="special" transform="translate(58.000000, 790.000000)">
                <g id="eye-link" transform="translate(196.000000, 221.000000)">
                    <path d="M38.8268668,24.9725757 C38.7634184,24.9010275 37.2312067,23.2108697 34.8363666,21.5004625 C33.4229519,20.4906877 32.0014375,19.6861078 30.6109722,19.1069723 C28.8492663,18.3725907 27.1294093,18 25.5,18 C23.8705907,18 22.1507337,18.3725907 20.3890278,19.1069723 C18.9985625,19.6861078 17.5770481,20.4920377 16.1636334,21.5004625 C13.7687933,23.2108697 12.2365816,24.9023774 12.1731332,24.9725757 C11.9422889,25.2290693 11.9422889,25.6192095 12.1731332,25.8757031 C12.2365816,25.9472513 13.7687933,27.6374091 16.1636334,29.3478163 C17.5770481,30.3575911 18.9985625,31.1621709 20.3890278,31.7413065 C22.1507337,32.4756881 23.8705907,32.8482788 25.5,32.8482788 C27.1294093,32.8482788 28.8492663,32.4756881 30.6109722,31.7413065 C32.0014375,31.1621709 33.4229519,30.3562411 34.8363666,29.3478163 C37.2312067,27.6374091 38.7634184,25.9459014 38.8268668,25.8757031 C39.0577111,25.6192095 39.0577111,25.2290693 38.8268668,24.9725757 Z M28.9748131,19.9399015 C30.1992325,20.9699258 30.899865,22.4683883 30.899865,24.0734982 C30.899865,27.0515237 28.4780255,29.4733632 25.5,29.4733632 C22.5219745,29.4733632 20.100135,27.0515237 20.100135,24.0734982 C20.100135,22.4697383 20.8007675,20.9699258 22.0251869,19.9399015 C23.1348591,19.5781105 24.3079798,19.3486163 25.5,19.3486163 C26.6920202,19.3486163 27.8651409,19.5781105 28.9748131,19.9399015 Z M34.0277368,28.2664933 C31.9582385,29.7406565 28.7993175,31.4983125 25.5,31.4983125 C22.2006825,31.4983125 19.0417615,29.7406565 16.9722632,28.2664933 C15.4103522,27.1541211 14.2156321,26.0282493 13.6121972,25.4234644 C14.2156321,24.8186795 15.4103522,23.6941576 16.9722632,22.5804355 C17.6877453,22.0701482 18.5328242,21.5274618 19.4697008,21.0347241 C19.0012625,21.9635009 18.7501687,22.998925 18.7501687,24.0734982 C18.7501687,27.7953551 21.778143,30.8233294 25.5,30.8233294 C29.221857,30.8233294 32.2498313,27.7953551 32.2498313,24.0734982 C32.2498313,22.998925 31.9987375,21.9635009 31.5302992,21.0347241 C32.4671758,21.5274618 33.3122547,22.0714982 34.0277368,22.5804355 C35.5896478,23.6928077 36.7843679,24.8186795 37.3878028,25.4234644 C36.7843679,26.0282493 35.5896478,27.1527712 34.0277368,28.2664933 Z" id="Shape" fill="#FFFFFF" fill-rule="nonzero"></path>
                    <circle id="Oval" stroke="#FFFFFF" cx="25" cy="25" r="25"></circle>
                </g>
            </g>
        </g>
    </g>
</svg>