<?xml version="1.0" encoding="UTF-8"?>
<svg width="42px" height="35px" viewBox="0 0 42 35" version="1.1" xmlns="http://www.w3.org/2000/svg" xmlns:xlink="http://www.w3.org/1999/xlink">
    <!-- Generator: Sketch 49.3 (51167) - http://www.bohemiancoding.com/sketch -->
    <title>02. Shop</title>
    <desc>Created with Sketch.</desc>
    <defs></defs>
    <g id="Page-1" stroke="none" stroke-width="1" fill="none" fill-rule="evenodd">
        <g id="ICON" transform="translate(-515.000000, -275.000000)" fill="#C19743" stroke="#C19743" stroke-width="0.4">
            <path d="M531.652174,292.521739 L531.652174,298.608696 C531.652174,299.088696 532.041739,299.478261 532.521739,299.478261 L539.478261,299.478261 C539.958261,299.478261 540.347826,299.088696 540.347826,298.608696 L540.347826,292.521739 C540.347826,292.041739 539.958261,291.652174 539.478261,291.652174 L532.521739,291.652174 C532.041739,291.652174 531.652174,292.041739 531.652174,292.521739 L531.652174,292.521739 Z M533.391304,293.391304 L538.608696,293.391304 L538.608696,297.73913 L533.391304,297.73913 L533.391304,293.391304 L533.391304,293.391304 Z M552.521739,276 L522.956522,276 C522.678261,276 522.44087,276.14 522.281739,276.343478 L516.343478,282.281739 C516.246087,282.357391 516.165217,282.449565 516.107826,282.56 C516.103478,282.566957 516.097391,282.573043 516.093913,282.58 C516.038261,282.694783 516,282.82 516,282.956522 L516,285.565217 C516,287.184348 517.111304,288.533043 518.608696,288.92 L518.608696,305.565217 C518.608696,307.486087 520.166087,309.043478 522.086957,309.043478 L552.521739,309.043478 C554.442609,309.043478 556,307.486087 556,305.565217 L556,279.478261 C556,277.557391 554.442609,276 552.521739,276 L552.521739,276 Z M541.755652,277.73913 L537.407826,282.086957 L534.592174,282.086957 L538.94,277.73913 L541.755652,277.73913 L541.755652,277.73913 Z M536.869565,283.826087 L536.869565,285.565217 C536.869565,286.525217 536.090435,287.304348 535.130435,287.304348 C534.170435,287.304348 533.391304,286.525217 533.391304,285.565217 L533.391304,283.826087 L536.869565,283.826087 L536.869565,283.826087 Z M536.538261,277.73913 L532.190435,282.086957 L529.374783,282.086957 L533.722609,277.73913 L536.538261,277.73913 L536.538261,277.73913 Z M531.652174,283.826087 L531.652174,285.565217 C531.652174,286.525217 530.873043,287.304348 529.913043,287.304348 C528.953043,287.304348 528.173913,286.525217 528.173913,285.565217 L528.173913,283.826087 L531.652174,283.826087 L531.652174,283.826087 Z M531.32087,277.73913 L526.973043,282.086957 L524.157391,282.086957 L528.505217,277.73913 L531.32087,277.73913 L531.32087,277.73913 Z M526.434783,283.826087 L526.434783,285.565217 C526.434783,286.525217 525.655652,287.304348 524.695652,287.304348 C523.735652,287.304348 522.956522,286.525217 522.956522,285.565217 L522.956522,283.826087 L526.434783,283.826087 L526.434783,283.826087 Z M523.287826,277.73913 L526.103478,277.73913 L521.755652,282.086957 L518.94,282.086957 L523.287826,277.73913 L523.287826,277.73913 Z M519.478261,287.304348 C518.518261,287.304348 517.73913,286.525217 517.73913,285.565217 L517.73913,283.826087 L521.217391,283.826087 L521.217391,285.565217 C521.217391,286.526087 520.438261,287.304348 519.478261,287.304348 L519.478261,287.304348 Z M528.173913,307.304348 L524.695652,307.304348 L524.695652,299.478261 L528.173913,299.478261 L528.173913,307.304348 L528.173913,307.304348 Z M542.956522,305.565217 C542.956522,306.525217 542.177391,307.304348 541.217391,307.304348 L529.913043,307.304348 L529.913043,298.608696 C529.913043,298.128696 529.523478,297.73913 529.043478,297.73913 L523.826087,297.73913 C523.346087,297.73913 522.956522,298.128696 522.956522,298.608696 L522.956522,307.304348 L522.086957,307.304348 C521.126957,307.304348 520.347826,306.525217 520.347826,305.565217 L520.347826,288.92 C521.033913,288.742609 521.631304,288.356522 522.086087,287.841739 C522.723478,288.572174 523.650435,289.042609 524.695652,289.042609 C525.74087,289.042609 526.666957,288.572174 527.304348,287.843478 C527.941739,288.573043 528.867826,289.042609 529.913043,289.042609 C530.958261,289.042609 531.884348,288.572174 532.521739,287.843478 C533.15913,288.573043 534.085217,289.042609 535.130435,289.042609 C537.051304,289.042609 538.608696,287.485217 538.608696,285.564348 L538.608696,283.286957 L542.956522,278.93913 L542.956522,305.565217 L542.956522,305.565217 Z M554.26087,305.565217 C554.26087,306.525217 553.481739,307.304348 552.521739,307.304348 L544.213043,307.304348 C544.512174,306.791304 544.695652,306.201739 544.695652,305.565217 L544.695652,277.73913 L552.521739,277.73913 C553.481739,277.73913 554.26087,278.518261 554.26087,279.478261 L554.26087,305.565217 L554.26087,305.565217 Z" id="02.-Shop"></path>
        </g>
    </g>
</svg>