<?xml version="1.0" encoding="UTF-8"?>
<svg width="40px" height="52px" viewBox="0 0 40 52" version="1.1" xmlns="http://www.w3.org/2000/svg" xmlns:xlink="http://www.w3.org/1999/xlink">
    <!-- Generator: Sketch 49.3 (51167) - http://www.bohemiancoding.com/sketch -->
    <title>03. Office</title>
    <desc>Created with Sketch.</desc>
    <defs></defs>
    <g id="Page-1" stroke="none" stroke-width="1" fill="none" fill-rule="evenodd">
        <g id="ICON" transform="translate(-602.000000, -267.000000)" fill="#C19743">
            <path d="M615.333333,295.888889 L614.222222,295.888889 C613.608889,295.888889 613.111111,296.386667 613.111111,297 L613.111111,298.111111 C613.111111,298.724444 613.608889,299.222222 614.222222,299.222222 L615.333333,299.222222 C615.946667,299.222222 616.444444,298.724444 616.444444,298.111111 L616.444444,297 C616.444444,296.386667 615.946667,295.888889 615.333333,295.888889 L615.333333,295.888889 Z M625.333333,312.555556 L626.444444,312.555556 C627.057778,312.555556 627.555556,312.057778 627.555556,311.444444 L627.555556,310.333333 C627.555556,309.72 627.057778,309.222222 626.444444,309.222222 L625.333333,309.222222 C624.72,309.222222 624.222222,309.72 624.222222,310.333333 L624.222222,311.444444 C624.222222,312.057778 624.72,312.555556 625.333333,312.555556 L625.333333,312.555556 Z M609.777778,289.222222 L608.666667,289.222222 C608.053333,289.222222 607.555556,289.72 607.555556,290.333333 L607.555556,291.444444 C607.555556,292.057778 608.053333,292.555556 608.666667,292.555556 L609.777778,292.555556 C610.391111,292.555556 610.888889,292.057778 610.888889,291.444444 L610.888889,290.333333 C610.888889,289.72 610.391111,289.222222 609.777778,289.222222 L609.777778,289.222222 Z M615.333333,309.222222 L614.222222,309.222222 C613.608889,309.222222 613.111111,309.72 613.111111,310.333333 L613.111111,311.444444 C613.111111,312.057778 613.608889,312.555556 614.222222,312.555556 L615.333333,312.555556 C615.946667,312.555556 616.444444,312.057778 616.444444,311.444444 L616.444444,310.333333 C616.444444,309.72 615.946667,309.222222 615.333333,309.222222 L615.333333,309.222222 Z M615.333333,302.555556 L614.222222,302.555556 C613.608889,302.555556 613.111111,303.053333 613.111111,303.666667 L613.111111,304.777778 C613.111111,305.391111 613.608889,305.888889 614.222222,305.888889 L615.333333,305.888889 C615.946667,305.888889 616.444444,305.391111 616.444444,304.777778 L616.444444,303.666667 C616.444444,303.053333 615.946667,302.555556 615.333333,302.555556 L615.333333,302.555556 Z M625.333333,305.888889 L626.444444,305.888889 C627.057778,305.888889 627.555556,305.391111 627.555556,304.777778 L627.555556,303.666667 C627.555556,303.053333 627.057778,302.555556 626.444444,302.555556 L625.333333,302.555556 C624.72,302.555556 624.222222,303.053333 624.222222,303.666667 L624.222222,304.777778 C624.222222,305.391111 624.72,305.888889 625.333333,305.888889 L625.333333,305.888889 Z M615.333333,289.222222 L614.222222,289.222222 C613.608889,289.222222 613.111111,289.72 613.111111,290.333333 L613.111111,291.444444 C613.111111,292.057778 613.608889,292.555556 614.222222,292.555556 L615.333333,292.555556 C615.946667,292.555556 616.444444,292.057778 616.444444,291.444444 L616.444444,290.333333 C616.444444,289.72 615.946667,289.222222 615.333333,289.222222 L615.333333,289.222222 Z M635.333333,312.555556 L636.444444,312.555556 C637.057778,312.555556 637.555556,312.057778 637.555556,311.444444 L637.555556,310.333333 C637.555556,309.72 637.057778,309.222222 636.444444,309.222222 L635.333333,309.222222 C634.72,309.222222 634.222222,309.72 634.222222,310.333333 L634.222222,311.444444 C634.222222,312.057778 634.72,312.555556 635.333333,312.555556 L635.333333,312.555556 Z M609.777778,295.888889 L608.666667,295.888889 C608.053333,295.888889 607.555556,296.386667 607.555556,297 L607.555556,298.111111 C607.555556,298.724444 608.053333,299.222222 608.666667,299.222222 L609.777778,299.222222 C610.391111,299.222222 610.888889,298.724444 610.888889,298.111111 L610.888889,297 C610.888889,296.386667 610.391111,295.888889 609.777778,295.888889 L609.777778,295.888889 Z M635.333333,305.888889 L636.444444,305.888889 C637.057778,305.888889 637.555556,305.391111 637.555556,304.777778 L637.555556,303.666667 C637.555556,303.053333 637.057778,302.555556 636.444444,302.555556 L635.333333,302.555556 C634.72,302.555556 634.222222,303.053333 634.222222,303.666667 L634.222222,304.777778 C634.222222,305.391111 634.72,305.888889 635.333333,305.888889 L635.333333,305.888889 Z M642,290.333333 L640.888889,290.333333 L640.888889,287 L634.222222,287 L634.222222,290.333333 L629.777778,290.333333 L629.777778,297 L622,297 L622,288.111111 C622,285.656667 620.01,283.666667 617.555556,283.666667 L617.555556,279.222222 C617.555556,277.995556 616.56,277 615.333333,277 L613.111111,277 L613.111111,268.111111 C613.111111,267.497778 612.613333,267 612,267 C611.386667,267 610.888889,267.497778 610.888889,268.111111 L610.888889,277 L608.666667,277 C607.44,277 606.444444,277.995556 606.444444,279.222222 L606.444444,283.666667 C603.99,283.666667 602,285.656667 602,288.111111 L602,318.111111 L642,318.111111 L642,290.333333 L642,290.333333 Z M608.666667,280.333333 C608.666667,279.72 609.164444,279.222222 609.777778,279.222222 L614.222222,279.222222 C614.835556,279.222222 615.333333,279.72 615.333333,280.333333 L615.333333,283.666667 L608.666667,283.666667 L608.666667,280.333333 L608.666667,280.333333 Z M619.777778,315.888889 L604.222222,315.888889 L604.222222,288.111111 C604.222222,286.884444 605.217778,285.888889 606.444444,285.888889 L617.555556,285.888889 C618.782222,285.888889 619.777778,286.884444 619.777778,288.111111 L619.777778,315.888889 L619.777778,315.888889 Z M629.777778,315.888889 L622,315.888889 L622,299.222222 L629.777778,299.222222 L629.777778,315.888889 L629.777778,315.888889 Z M639.777778,315.888889 L632,315.888889 L632,292.555556 L639.777778,292.555556 L639.777778,315.888889 L639.777778,315.888889 Z M635.333333,299.222222 L636.444444,299.222222 C637.057778,299.222222 637.555556,298.724444 637.555556,298.111111 L637.555556,297 C637.555556,296.386667 637.057778,295.888889 636.444444,295.888889 L635.333333,295.888889 C634.72,295.888889 634.222222,296.386667 634.222222,297 L634.222222,298.111111 C634.222222,298.724444 634.72,299.222222 635.333333,299.222222 L635.333333,299.222222 Z M609.777778,302.555556 L608.666667,302.555556 C608.053333,302.555556 607.555556,303.053333 607.555556,303.666667 L607.555556,304.777778 C607.555556,305.391111 608.053333,305.888889 608.666667,305.888889 L609.777778,305.888889 C610.391111,305.888889 610.888889,305.391111 610.888889,304.777778 L610.888889,303.666667 C610.888889,303.053333 610.391111,302.555556 609.777778,302.555556 L609.777778,302.555556 Z M609.777778,309.222222 L608.666667,309.222222 C608.053333,309.222222 607.555556,309.72 607.555556,310.333333 L607.555556,311.444444 C607.555556,312.057778 608.053333,312.555556 608.666667,312.555556 L609.777778,312.555556 C610.391111,312.555556 610.888889,312.057778 610.888889,311.444444 L610.888889,310.333333 C610.888889,309.72 610.391111,309.222222 609.777778,309.222222 L609.777778,309.222222 Z" id="03.-Office"></path>
        </g>
    </g>
</svg>