<?xml version="1.0" encoding="UTF-8"?>
<svg width="42px" height="42px" viewBox="0 0 42 42" version="1.1" xmlns="http://www.w3.org/2000/svg" xmlns:xlink="http://www.w3.org/1999/xlink">
    <!-- Generator: Sketch 49.3 (51167) - http://www.bohemiancoding.com/sketch -->
    <title>06. Tags</title>
    <desc>Created with Sketch.</desc>
    <defs></defs>
    <g id="Page-1" stroke="none" stroke-width="1" fill="none" fill-rule="evenodd">
        <g id="ICON" transform="translate(-682.000000, -272.000000)" fill="#C19743" stroke="#C19743" stroke-width="0.4">
            <path d="M722.130364,286.91417 C721.651195,286.91417 721.260729,287.303767 721.260729,287.783806 L721.260729,293.539924 L704.985498,309.814285 C704.654167,310.145616 704.654167,310.683921 704.985498,311.015252 C705.318568,311.346583 705.855134,311.346583 706.186465,311.015252 L722.656494,294.545223 C722.859989,294.386079 723,294.148669 723,293.870386 L723,287.782936 C723,287.303767 722.611273,286.91417 722.130364,286.91417 L722.130364,286.91417 Z M700.141627,303.189401 C700.472959,302.8572 700.472959,302.319765 700.141627,301.988434 L694.011566,295.859242 C693.680235,295.527911 693.143669,295.527911 692.810599,295.859242 C692.479268,296.190573 692.479268,296.728878 692.810599,297.060209 L698.940661,303.189401 C699.271992,303.520732 699.810296,303.520732 700.141627,303.189401 L700.141627,303.189401 Z M702.419203,299.710858 C702.750534,300.04219 703.288839,300.04219 703.62017,299.710858 C703.951501,299.378658 703.951501,298.841223 703.62017,298.509892 L697.490108,292.3807 C697.158777,292.049369 696.622212,292.049369 696.289142,292.3807 C695.95781,292.712901 695.95781,293.250335 696.289142,293.581667 L702.419203,299.710858 L702.419203,299.710858 Z M683.370704,298.054203 L697.947537,312.631035 C697.976235,312.672778 697.993627,312.718868 698.029282,312.756263 C698.200601,312.927581 698.426706,313.006718 698.651072,313.00063 C698.875438,313.005848 699.101543,312.927581 699.272861,312.756263 C699.310256,312.719738 699.326779,312.672778 699.356346,312.631035 L719.179691,292.807691 C719.383185,292.648547 719.523197,292.411137 719.523197,292.132854 L719.523197,282.566862 C719.523197,282.288578 719.384055,282.051168 719.179691,281.892024 L714.109715,276.822049 C713.951441,276.618554 713.714031,276.478543 713.435747,276.478543 L709.258887,276.478543 C709.357156,275.766311 709.654572,275.160175 710.071127,274.776666 C710.298972,274.595781 710.454636,274.320107 710.454636,273.993994 C710.454636,273.445253 710.037211,273 709.522387,273 C709.265844,273 709.033652,273.111313 708.863203,273.291328 L708.849289,273.275674 C708.045746,274.02617 707.512659,275.17148 707.396997,276.478543 L703.868016,276.478543 C703.589733,276.478543 703.353192,276.617684 703.194048,276.822049 L683.370704,296.645393 C683.328092,296.674091 683.282001,296.691484 683.244607,296.728008 C683.075028,296.899326 682.995022,297.125432 683.000239,297.348928 C682.995022,297.573294 683.075028,297.799399 683.244607,297.970718 C683.282001,298.008112 683.328092,298.025505 683.370704,298.054203 L683.370704,298.054203 Z M704.199347,278.217814 L707.497875,278.217814 C707.72398,279.210068 708.20141,280.071007 708.848419,280.675404 L708.862334,280.659751 C708.89451,280.693666 708.938861,280.711059 708.974517,280.739757 C709.416291,281.148486 709.721534,281.809409 709.799801,282.582515 C707.951825,282.66687 706.477793,284.177427 706.477793,286.044534 C706.477793,287.96556 708.03531,289.523077 709.956335,289.523077 C711.87736,289.523077 713.434878,287.96556 713.434878,286.044534 C713.434878,284.756604 712.726994,283.64434 711.685171,283.042552 C711.68691,283.006897 711.695606,282.974721 711.695606,282.938196 C711.695606,281.419812 711.100776,280.084921 710.195485,279.238766 L710.179832,279.254419 C710.149394,279.220504 710.105043,279.203111 710.069388,279.175283 L710.069388,279.175283 C709.807627,278.933524 709.590219,278.604802 709.438902,278.218683 L713.102677,278.218683 L717.782186,282.897323 L717.782186,291.800653 L698.650202,310.932637 L685.067363,297.349798 L704.199347,278.217814 L704.199347,278.217814 Z M709.520648,286.91417 C709.778929,286.91417 710.011122,286.802857 710.179832,286.622842 C710.179832,286.622842 710.772923,286.307164 711.307749,284.962708 C711.546899,285.260123 711.694737,285.633197 711.694737,286.044534 C711.694737,287.004612 710.916413,287.783806 709.955466,287.783806 C708.995388,287.783806 708.216194,287.004612 708.216194,286.044534 C708.216194,285.239252 708.766674,284.568763 709.510212,284.370486 C709.365853,284.67138 709.189317,284.938358 708.973647,285.138374 C708.745802,285.319258 708.590138,285.594933 708.590138,285.921046 C708.590138,286.468917 709.005823,286.91417 709.520648,286.91417 L709.520648,286.91417 Z" id="06.-Tags"></path>
        </g>
    </g>
</svg>