<?xml version="1.0" encoding="UTF-8"?>
<svg width="42px" height="36px" viewBox="0 0 42 36" version="1.1" xmlns="http://www.w3.org/2000/svg" xmlns:xlink="http://www.w3.org/1999/xlink">
    <!-- Generator: Sketch 49.3 (51167) - http://www.bohemiancoding.com/sketch -->
    <title>29. Mac</title>
    <desc>Created with Sketch.</desc>
    <defs></defs>
    <g id="Page-1" stroke="none" stroke-width="1" fill="none" fill-rule="evenodd">
        <g id="ICON" transform="translate(-768.000000, -274.000000)" fill="#C19743" stroke="#C19743" stroke-width="0.4">
            <path d="M805.521739,275 L772.478261,275 C770.557391,275 769,276.557391 769,278.478261 L769,298.478261 C769,300.39913 770.557391,301.956522 772.478261,301.956522 L784.482609,301.956522 C783.966087,304.826957 782.246087,306.801739 780.656522,308.043478 L778.565217,308.043478 C778.086087,308.043478 777.695652,308.432174 777.695652,308.913043 C777.695652,309.393913 778.086087,309.782609 778.565217,309.782609 L799.434783,309.782609 C799.915652,309.782609 800.304348,309.393913 800.304348,308.913043 C800.304348,308.432174 799.915652,308.043478 799.434783,308.043478 L797.346087,308.043478 C795.756522,306.801739 794.035652,304.826957 793.518261,301.956522 L805.521739,301.956522 C807.442609,301.956522 809,300.39913 809,298.478261 L809,278.478261 C809,276.557391 807.442609,275 805.521739,275 L805.521739,275 Z M794.742609,308.043478 L783.26,308.043478 C784.646087,306.58087 785.88087,304.585217 786.267826,301.956522 L791.734783,301.956522 C792.12,304.585217 793.354783,306.58087 794.742609,308.043478 L794.742609,308.043478 Z M807.26087,298.478261 C807.26087,299.438261 806.482609,300.217391 805.521739,300.217391 L772.478261,300.217391 C771.518261,300.217391 770.73913,299.438261 770.73913,298.478261 L770.73913,296.73913 L807.26087,296.73913 L807.26087,298.478261 L807.26087,298.478261 Z M807.26087,295 L770.73913,295 L770.73913,278.478261 C770.73913,277.517391 771.518261,276.73913 772.478261,276.73913 L805.521739,276.73913 C806.482609,276.73913 807.26087,277.517391 807.26087,278.478261 L807.26087,295 L807.26087,295 Z M789,299.347826 C789.48087,299.347826 789.869565,298.95913 789.869565,298.478261 C789.869565,297.997391 789.48087,297.608696 789,297.608696 C788.52087,297.608696 788.130435,297.997391 788.130435,298.478261 C788.130435,298.95913 788.52087,299.347826 789,299.347826 L789,299.347826 Z" id="29.-Mac"></path>
        </g>
    </g>
</svg>