<?xml version="1.0" encoding="UTF-8"?>
<svg width="42px" height="41px" viewBox="0 0 42 41" version="1.1" xmlns="http://www.w3.org/2000/svg" xmlns:xlink="http://www.w3.org/1999/xlink">
    <!-- Generator: Sketch 49.3 (51167) - http://www.bohemiancoding.com/sketch -->
    <title>33. Thumbs Up</title>
    <desc>Created with Sketch.</desc>
    <defs></defs>
    <g id="Page-1" stroke="none" stroke-width="1" fill="none" fill-rule="evenodd">
        <g id="ICON" transform="translate(-851.000000, -272.000000)" fill="#C19743" stroke="#C19743" stroke-width="0.4">
            <path d="M892,293.004364 C892,291.083495 890.442609,289.526103 888.521739,289.526103 L875.478261,289.526103 C875.478261,289.526103 878.086957,286.575669 878.086957,280.830451 C878.086957,280.830451 878.086957,276.482625 875.478261,273.873929 C875.478261,273.873929 874.793043,273.004364 872.869565,273.004364 C872.869565,273.004364 870.731304,272.776538 870.26087,275.61306 L870.26087,279.960886 L863.64,289.524364 L856.347826,289.524364 C853.946087,289.524364 852,294.196538 852,299.959147 C852,305.721756 853.946087,310.393929 856.347826,310.393929 L862.106087,310.393929 C862.938261,311.393929 864.168696,312.051321 865.562609,312.111321 L865.562609,312.13306 L885.913043,312.134799 C887.833913,312.134799 889.391304,310.577408 889.391304,308.656538 C889.391304,307.799147 889.068696,307.022625 888.553913,306.416538 C889.571304,305.810451 890.26087,304.711321 890.26087,303.439147 C890.26087,302.581756 889.938261,301.806973 889.423478,301.199147 C890.441739,300.59306 891.130435,299.49219 891.130435,298.221756 C891.130435,297.364364 890.807826,296.589582 890.293043,295.983495 C891.310435,295.375669 892,294.274799 892,293.004364 L892,293.004364 Z M856.347826,308.655669 C855.677391,308.655669 853.73913,305.665234 853.73913,299.960016 C853.73913,294.253929 855.677391,291.264364 856.347826,291.264364 L862.434783,291.264364 C861.742609,292.222625 859.826087,294.705234 859.826087,298.220886 C859.826087,301.531321 860.551304,305.635669 861.065217,308.133929 C861.094783,308.313929 861.149565,308.481756 861.198261,308.655669 L856.347826,308.655669 L856.347826,308.655669 Z M889.401739,294.489582 L887.638261,295.542625 L888.967826,297.108712 C889.16087,297.338277 889.391304,297.714799 889.391304,298.222625 C889.391304,298.83219 889.070435,299.386103 888.533913,299.705234 L886.768696,300.756538 L888.097391,302.324364 C888.291304,302.553929 888.521739,302.93219 888.521739,303.440016 C888.521739,304.047842 888.20087,304.603495 887.662609,304.924364 L885.89913,305.977408 L887.228696,307.543495 C887.421739,307.771321 887.652174,308.149582 887.652174,308.657408 C887.652174,309.615669 886.872174,310.396538 885.913043,310.396538 L865.637391,310.374799 C864.214783,310.313929 863.013043,309.250451 862.78087,307.849582 C862.31913,305.598277 861.565217,301.448712 861.565217,298.220886 C861.565217,295.416538 863.04,293.388712 863.748696,292.413929 L863.844348,292.281756 L872,280.504364 L872,275.771321 C872.087826,275.336538 872.293043,274.740016 872.756522,274.740016 C872.756522,274.740016 873.561739,274.645234 874.146957,275.01306 L874.248696,275.104364 C876.30087,277.153929 876.347826,280.799147 876.347826,280.834799 C876.347826,285.779147 874.197391,288.348712 874.175652,288.37219 L871.618261,291.264364 L888.521739,291.264364 C889.48087,291.264364 890.26087,292.043495 890.26087,293.003495 C890.26087,293.614799 889.94,294.167842 889.401739,294.489582 L889.401739,294.489582 Z M857.652174,304.307842 C856.931304,304.307842 856.347826,304.89219 856.347826,305.61219 C856.347826,306.33219 856.931304,306.916538 857.652174,306.916538 C858.373043,306.916538 858.956522,306.33219 858.956522,305.61219 C858.956522,304.89219 858.373043,304.307842 857.652174,304.307842 L857.652174,304.307842 Z" id="33.-Thumbs-Up"></path>
        </g>
    </g>
</svg>