<?xml version="1.0" encoding="UTF-8"?>
<svg width="42px" height="25px" viewBox="0 0 42 25" version="1.1" xmlns="http://www.w3.org/2000/svg" xmlns:xlink="http://www.w3.org/1999/xlink">
    <!-- Generator: Sketch 49.3 (51167) - http://www.bohemiancoding.com/sketch -->
    <title>Bow tie 2</title>
    <desc>Created with Sketch.</desc>
    <defs></defs>
    <g id="Page-1" stroke="none" stroke-width="1" fill="none" fill-rule="evenodd">
        <g id="ICON" transform="translate(-851.000000, -352.000000)" fill="#C19743" stroke="#C19743" stroke-width="0.7">
            <path d="M890.968,353.217193 C890.317333,352.862527 889.492,352.94386 888.678667,353.449193 L886.069333,355.07986 L876.22,361.233193 C875.170667,359.962527 873.657333,359.186527 871.996,359.186527 C870.329333,359.186527 868.813333,359.962527 867.766667,361.238527 L857.917333,355.082527 L855.308,353.449193 C854.496,352.946527 853.668,352.865193 853.018667,353.217193 C852.370667,353.577193 852,354.329193 852,355.27986 L852,361.053193 L852,368.39186 L852,374.16786 C852,375.11586 852.369333,375.86786 853.018667,376.225193 C853.284,376.370527 853.578667,376.44386 853.890667,376.44386 C854.341333,376.44386 854.830667,376.293193 855.306667,375.99586 L857.916,374.365193 L867.768,368.209193 C868.812,369.485193 870.328,370.258527 871.994667,370.258527 C873.658667,370.258527 875.172,369.485193 876.218667,368.209193 L886.068,374.365193 L888.677333,375.99586 C889.153333,376.293193 889.641333,376.44386 890.092,376.44386 C890.406667,376.44386 890.701333,376.370527 890.966667,376.225193 C891.612,375.86786 891.982667,375.11586 891.982667,374.16786 L891.982667,368.39186 L891.982667,361.053193 L891.982667,355.27986 C891.982667,354.32786 891.613333,353.57586 890.968,353.217193 L890.968,353.217193 Z M857.157333,373.149193 L854.545333,374.77986 C854.204,374.993193 853.884,375.066527 853.712,374.970527 C853.542667,374.877193 853.436,374.569193 853.436,374.16786 L853.436,368.985193 L857.673333,368.178527 C858.061333,368.105193 858.316,367.730527 858.241333,367.342527 C858.168,366.95186 857.788,366.673193 857.402667,366.77186 L853.436,367.526527 L853.436,361.917193 L857.402667,362.674527 C857.449333,362.685193 857.493333,362.68786 857.538667,362.68786 C857.624,362.68786 857.692,362.63586 857.770667,362.605193 C857.838667,362.578527 857.906667,362.581193 857.965333,362.537193 C858.101333,362.433193 858.208,362.286527 858.241333,362.10786 C858.317333,361.717193 858.061333,361.342527 857.673333,361.269193 L853.436,360.45986 L853.436,355.27986 C853.436,354.87586 853.542667,354.569193 853.712,354.474527 C853.884,354.378527 854.204,354.44786 854.545333,354.665193 L857.157333,356.298527 L866.966667,362.43186 C866.948,362.470527 866.942667,362.514527 866.928,362.554527 C866.766667,362.921193 866.638667,363.29986 866.561333,363.694527 C866.498667,364.02786 866.46,364.37186 866.46,364.725193 C866.46,365.077193 866.498667,365.41586 866.564,365.753193 C866.64,366.146527 866.772,366.52386 866.930667,366.89586 C866.946667,366.93186 866.952,366.977193 866.969333,367.01586 L857.157333,373.149193 L857.157333,373.149193 Z M871.996,368.82386 C870.581333,368.82386 869.288,368.09986 868.526667,366.889193 C868.253333,366.446527 868.065333,365.97186 867.972,365.490527 C867.928,365.242527 867.893333,364.98786 867.893333,364.725193 C867.893333,364.45986 867.926667,364.198527 867.969333,363.95986 C868.065333,363.465193 868.253333,362.99586 868.526667,362.56386 L868.526667,362.561193 C869.286667,361.34786 870.584,360.621193 871.996,360.621193 C873.405333,360.621193 874.701333,361.345193 875.46,362.553193 C875.736,362.99586 875.924,363.465193 876.014667,363.95186 C876.058667,364.19986 876.093333,364.45986 876.093333,364.725193 C876.093333,364.98786 876.06,365.24386 876.017333,365.485193 C875.924,365.974527 875.736,366.449193 875.46,366.886527 C874.701333,368.09986 873.405333,368.82386 871.996,368.82386 L871.996,368.82386 Z M890.548,374.166527 C890.548,374.56786 890.444,374.874527 890.272,374.969193 C890.097333,375.065193 889.78,374.993193 889.438667,374.778527 L886.832,373.14786 L877.017333,367.014527 C877.036,366.978527 877.038667,366.938527 877.053333,366.902527 C877.217333,366.530527 877.353333,366.14786 877.428,365.746527 C877.488,365.413193 877.526667,365.074527 877.526667,364.722527 C877.526667,364.36786 877.488,364.025193 877.422667,363.681193 C877.346667,363.290527 877.217333,362.910527 877.058667,362.541193 C877.04,362.505193 877.034667,362.45986 877.017333,362.42386 L886.832,356.293193 L889.438667,354.662527 C889.782667,354.449193 890.102667,354.378527 890.272,354.47186 C890.444,354.565193 890.548,354.873193 890.548,355.277193 L890.548,360.457193 L886.316,361.266527 C885.925333,361.33986 885.670667,361.714527 885.745333,362.105193 C885.778667,362.290527 885.888,362.430527 886.026667,362.534527 C886.084,362.578527 886.149333,362.57586 886.214667,362.602527 C886.296,362.633193 886.362667,362.685193 886.449333,362.685193 C886.493333,362.685193 886.54,362.682527 886.585333,362.67186 L890.549333,361.914527 L890.549333,367.52386 L886.585333,366.769193 C886.208,366.670527 885.82,366.949193 885.746667,367.33986 C885.670667,367.72786 885.926667,368.102527 886.317333,368.17586 L890.549333,368.982527 L890.549333,374.166527 L890.548,374.166527 Z" id="Bow-tie-2"></path>
        </g>
    </g>
</svg>