<?xml version="1.0" encoding="UTF-8"?>
<svg width="42px" height="34px" viewBox="0 0 42 34" version="1.1" xmlns="http://www.w3.org/2000/svg" xmlns:xlink="http://www.w3.org/1999/xlink">
    <!-- Generator: Sketch 49.3 (51167) - http://www.bohemiancoding.com/sketch -->
    <title>Hamburger 2</title>
    <desc>Created with Sketch.</desc>
    <defs></defs>
    <g id="Page-1" stroke="none" stroke-width="1" fill="none" fill-rule="evenodd">
        <g id="ICON" transform="translate(-768.000000, -347.000000)" fill="#C19743" stroke="#C19743" stroke-width="0.4">
            <path d="M807.502563,368.115556 C807.730711,367.727407 807.887748,367.305185 807.884785,366.848889 C807.884785,366.4 807.726267,365.998519 807.508489,365.637037 C807.864044,365.460741 808.206267,365.260741 808.492193,364.974815 C809.175156,364.288889 809.554415,363.377778 809.554415,362.411852 C809.554415,361.622222 809.244785,360.93037 808.813674,360.331852 C808.941081,360.259259 809.050711,360.152593 809.126267,360.019259 C809.277378,359.758519 809.268489,359.437037 809.111452,359.177778 C804.846267,352.180741 797.435896,348 789.275896,348 C781.118859,348 773.702563,352.180741 769.440341,359.177778 C769.284785,359.438519 769.278859,359.76 769.428489,360.019259 C769.504044,360.152593 769.604785,360.259259 769.732193,360.331852 C769.295156,360.942222 768.997378,361.645926 769.000341,362.411852 C769.000341,363.838519 769.844785,365.044444 771.046267,365.638519 C770.824044,366.014815 770.664044,366.428148 770.664044,366.897778 C770.66997,367.352593 770.831452,367.754074 771.046267,368.118519 C770.693674,368.294815 770.345526,368.491852 770.0596,368.780741 C769.376637,369.466667 768.997378,370.380741 769.000341,371.346667 C769.000341,372.114074 769.292193,372.785185 769.698119,373.371852 C769.315896,373.444444 769.00923,373.736296 769.000341,374.139259 C768.966267,377.278519 771.492193,379.862222 774.637378,379.900741 L803.792933,379.900741 L803.862563,379.900741 C806.964785,379.900741 809.515896,377.374815 809.554415,374.148148 C809.554415,373.740741 809.238859,373.444444 808.853674,373.373333 C809.26997,372.771852 809.554415,372.094815 809.554415,371.348148 C809.554415,369.918519 808.707007,368.70963 807.502563,368.115556 L807.502563,368.115556 Z M807.311452,372.733333 C806.941081,373.10963 806.443304,373.312593 805.917378,373.312593 L797.438859,373.312593 L802.345526,369.377778 L805.915896,369.377778 C807.000341,369.377778 807.883304,370.260741 807.883304,371.348148 C807.884785,371.871111 807.681822,372.361481 807.311452,372.733333 L807.311452,372.733333 Z M806.218119,366.860741 C806.221081,367.088889 806.130711,367.300741 805.972193,367.462222 C805.816637,367.620741 805.607748,367.711111 805.392933,367.711111 L802.053674,367.711111 C801.865526,367.711111 801.680341,367.777778 801.535156,367.893333 L796.468489,371.952593 L791.375156,367.893333 C791.224044,367.774815 791.044785,367.711111 790.853674,367.711111 L773.173674,367.711111 C772.708489,367.702222 772.338119,367.334815 772.332193,366.885926 C772.332193,366.417778 772.702563,366.038519 773.157378,366.038519 L805.287748,366.038519 C805.784044,366.09037 806.218119,366.371852 806.218119,366.860741 L806.218119,366.860741 Z M789.277378,349.663704 C796.341081,349.663704 802.810711,353.042963 806.855156,358.774815 L771.6996,358.774815 C775.747007,353.042963 782.213674,349.663704 789.277378,349.663704 L789.277378,349.663704 Z M771.241822,361.017778 C771.612193,360.647407 772.107007,360.441481 772.632933,360.441481 L805.932193,360.441481 C807.00923,360.441481 807.884785,361.324444 807.884785,362.411852 C807.884785,362.933333 807.681822,363.425185 807.311452,363.795556 C806.944044,364.165926 806.452193,364.371852 805.930711,364.371852 L772.621081,364.371852 C771.547007,364.371852 770.668489,363.491852 770.668489,362.41037 C770.668489,361.882963 770.871452,361.391111 771.241822,361.017778 L771.241822,361.017778 Z M771.241822,369.957037 C771.612193,369.583704 772.107007,369.377778 772.632933,369.377778 L790.564785,369.377778 L795.501081,373.312593 L772.632933,373.312593 C771.552933,373.312593 770.668489,372.42963 770.668489,371.345185 C770.668489,370.819259 770.871452,370.327407 771.241822,369.957037 L771.241822,369.957037 Z M803.862563,378.231111 L803.804785,378.231111 L774.646267,378.231111 C772.70997,378.204444 771.104044,376.81037 770.742563,374.979259 L807.80923,374.979259 C807.444785,376.828148 805.807748,378.231111 803.862563,378.231111 L803.862563,378.231111 Z" id="Hamburger-2"></path>
        </g>
    </g>
</svg>