<?xml version="1.0" encoding="UTF-8"?>
<svg width="42px" height="40px" viewBox="0 0 42 40" version="1.1" xmlns="http://www.w3.org/2000/svg" xmlns:xlink="http://www.w3.org/1999/xlink">
    <!-- Generator: Sketch 49.3 (51167) - http://www.bohemiancoding.com/sketch -->
    <title>Pencil 2</title>
    <desc>Created with Sketch.</desc>
    <defs></defs>
    <g id="Page-1" stroke="none" stroke-width="1" fill="none" fill-rule="evenodd">
        <g id="ICON" transform="translate(-601.000000, -345.000000)" fill="#C19743" stroke="#C19743" stroke-width="0.5">
            <path d="M642.412642,359.314634 C641.331042,356.412234 639.734242,353.789834 637.662242,351.517834 C635.603042,349.261834 633.137442,347.433034 630.331042,346.084234 C630.015842,345.933834 629.636642,345.986634 629.377442,346.228234 L611.351842,362.690634 L609.270242,364.591434 C609.158242,364.682634 609.060642,364.801034 609.001442,364.948234 C608.991842,364.970634 608.982242,364.997834 608.972642,365.023434 L604.126242,377.617034 L602.057442,382.994634 C601.939042,383.300234 602.007842,383.641034 602.225442,383.885834 C602.391842,384.066634 602.622242,384.164234 602.859042,384.164234 C602.937442,384.164234 603.019042,384.154634 603.095842,384.130634 L608.639842,382.559434 L621.676642,378.860234 C621.758242,378.837834 621.839842,378.801034 621.913442,378.754634 C621.953442,378.725834 621.995042,378.695434 622.031842,378.663434 L624.159842,376.719434 L642.182242,360.257034 C642.446242,360.015434 642.534242,359.642634 642.412642,359.314634 L642.412642,359.314634 Z M605.390242,379.124234 C605.423842,379.146634 605.465442,379.157834 605.499042,379.177034 C605.867042,379.409034 606.211042,379.665034 606.495842,379.980234 C606.780642,380.292234 607.004642,380.655434 607.201442,381.042634 C607.223842,381.076234 607.233442,381.121034 607.247842,381.157834 L604.281442,382.001034 L605.390242,379.124234 L605.390242,379.124234 Z M621.022242,377.252234 L608.950242,380.677834 C608.916642,380.602634 608.855842,380.546634 608.819042,380.474634 C608.540642,379.868234 608.206242,379.300234 607.769442,378.818634 C607.329442,378.337034 606.791842,377.956234 606.212642,377.621834 C606.140642,377.581834 606.097442,377.516234 606.025442,377.477834 L610.531042,365.772234 L611.881442,364.543434 L612.972642,365.737034 L622.366242,376.025034 L621.022242,377.252234 L621.022242,377.252234 Z M623.636642,374.861834 L620.908642,371.874634 L635.236642,358.793034 C635.420642,358.621834 635.515042,358.389834 635.515042,358.153034 C635.515042,357.949834 635.443042,357.740234 635.289442,357.575434 C634.971042,357.225034 634.423842,357.204234 634.073442,357.522634 L619.745442,370.604234 L619.185442,369.988234 L617.038242,367.631434 L631.359842,354.549834 C631.547042,354.378634 631.641442,354.146634 631.641442,353.909834 C631.641442,353.706634 631.566242,353.497034 631.415842,353.332234 C631.094242,352.981834 630.547042,352.961034 630.196642,353.279434 L615.871842,366.364234 L613.150242,363.380234 L630.100642,347.895434 C632.491042,349.121034 634.606242,350.727434 636.388642,352.685834 C638.182242,354.649034 639.588642,356.898634 640.588642,359.380234 L623.636642,374.861834 L623.636642,374.861834 Z" id="Pencil-2"></path>
        </g>
    </g>
</svg>