<?xml version="1.0" encoding="UTF-8"?>
<svg width="42px" height="42px" viewBox="0 0 42 42" version="1.1" xmlns="http://www.w3.org/2000/svg" xmlns:xlink="http://www.w3.org/1999/xlink">
    <!-- Generator: Sketch 49.3 (51167) - http://www.bohemiancoding.com/sketch -->
    <title>Shirt 2</title>
    <desc>Created with Sketch.</desc>
    <defs></defs>
    <g id="Page-1" stroke="none" stroke-width="1" fill="none" fill-rule="evenodd">
        <g id="ICON" transform="translate(-515.000000, -344.000000)" fill="#C19743" stroke="#C19743" stroke-width="0.7">
            <path d="M550.352,371.666667 L540.718667,371.666667 C540.322667,371.666667 540,371.989333 540,372.385333 C540,372.781333 540.322667,373.101333 540.718667,373.101333 L550.352,373.101333 C550.748,373.101333 551.068,372.781333 551.068,372.385333 C551.068,371.989333 550.748,371.666667 550.352,371.666667 L550.352,371.666667 Z M554.453333,383.664 L536.612,383.664 L536.612,361.450667 L545.216,365.748 C545.44,365.86 545.7,365.841333 545.910667,365.717333 C546.121333,365.586667 546.252,365.356 546.252,365.108 L546.252,353.777333 L550.350667,353.777333 C552.610667,353.777333 554.452,355.616 554.452,357.876 L554.452,383.664 L554.453333,383.664 Z M517.336,357.874667 C517.336,355.614667 519.174667,353.776 521.437333,353.776 L525.538667,353.776 L525.538667,365.106667 C525.538667,365.354667 525.666667,365.585333 525.877333,365.716 C526.088,365.841333 526.350667,365.858667 526.574667,365.746667 L535.176,361.449333 L535.176,383.662667 L517.334667,383.662667 L517.334667,357.874667 L517.336,357.874667 Z M544.818667,357.024 L544.818667,363.945333 L538.409333,360.745333 C541.146667,360.216 543.429333,358.854667 544.818667,357.024 L544.818667,357.024 Z M535.896,346.546667 C540.814667,346.546667 544.817333,349.468 544.817333,353.06 C544.817333,356.652 540.814667,359.573333 535.896,359.573333 C530.974667,359.573333 526.974667,356.652 526.974667,353.06 C526.974667,349.468 530.974667,346.546667 535.896,346.546667 L535.896,346.546667 Z M526.974667,357.024 C528.36,358.854667 530.644,360.217333 533.384,360.745333 L526.974667,363.945333 L526.974667,357.024 L526.974667,357.024 Z M550.352,352.341333 L546.157333,352.341333 C545.678667,348.3 541.288,345.112 535.897333,345.112 C530.506667,345.112 526.113333,348.3 525.634667,352.341333 L521.44,352.341333 C518.388,352.341333 515.904,354.825333 515.904,357.874667 L515.904,384.38 C515.904,384.776 516.226667,385.098667 516.622667,385.098667 L555.174667,385.098667 C555.568,385.098667 555.890667,384.776 555.890667,384.38 L555.890667,357.874667 C555.888,354.825333 553.406667,352.341333 550.352,352.341333 L550.352,352.341333 Z" id="Shirt-2"></path>
        </g>
    </g>
</svg>