<?xml version="1.0" encoding="UTF-8"?>
<svg width="42px" height="38px" viewBox="0 0 42 38" version="1.1" xmlns="http://www.w3.org/2000/svg" xmlns:xlink="http://www.w3.org/1999/xlink">
    <!-- Generator: Sketch 49.3 (51167) - http://www.bohemiancoding.com/sketch -->
    <title>Shopping cart 2</title>
    <desc>Created with Sketch.</desc>
    <defs></defs>
    <g id="Page-1" stroke="none" stroke-width="1" fill="none" fill-rule="evenodd">
        <g id="ICON" transform="translate(-682.000000, -346.000000)" fill="#C19743" stroke="#C19743" stroke-width="0.7">
            <path d="M717.998667,377.086667 L717.998667,377.086667 L695.089333,377.086667 L695.086667,377.086667 C695.086667,377.086667 695.086667,377.086667 695.084,377.086667 C694.614667,377.086667 694.172,376.904 693.841333,376.570667 C693.505333,376.237333 693.32,375.792 693.32,375.318667 C693.32,374.842667 693.502667,374.404 693.836,374.070667 C694.172,373.734667 694.614667,373.546667 695.088,373.546667 L695.088,373.546667 L695.090667,373.546667 L717.768,373.546667 C718.117333,373.546667 718.416,373.312 718.5,372.976 L723.538667,352.82 C723.593333,352.598667 723.544,352.361333 723.402667,352.174667 C723.257333,351.994667 723.038667,351.888 722.809333,351.888 L690.596,351.888 L689.510667,347.568 C689.489333,347.497333 689.422667,347.464 689.388,347.398667 C689.338667,347.316 689.305333,347.248 689.229333,347.188 C689.146667,347.117333 689.054667,347.1 688.953333,347.070667 C688.890667,347.052 688.849333,347 688.781333,347 L683.748,347 C683.333333,347 683,347.341333 683,347.749333 C683,348.165333 683.333333,348.498667 683.748,348.498667 L688.198667,348.498667 L694.172,372.228 C693.656,372.378667 693.166667,372.613333 692.773333,373.006667 C692.158667,373.621333 691.82,374.441333 691.82,375.316 C691.82,376.193333 692.161333,377.013333 692.781333,377.630667 C692.869333,377.718667 692.986667,377.758667 693.086667,377.836 C692.988,377.912 692.865333,377.950667 692.777333,378.038667 C692.16,378.661333 691.821333,379.481333 691.821333,380.356 C691.821333,382.153333 693.288,383.618667 695.086667,383.618667 L695.094667,383.618667 C695.969333,383.618667 696.789333,383.277333 697.406667,382.662667 C698.024,382.042667 698.362667,381.222667 698.36,380.356 C698.36,379.686667 698.109333,379.101333 697.766667,378.585333 L715.321333,378.585333 C714.972,379.112 714.730667,379.702667 714.730667,380.356 C714.730667,382.153333 716.194667,383.618667 717.996,383.618667 L718.006667,383.618667 C718.878667,383.618667 719.701333,383.277333 720.313333,382.662667 C720.930667,382.042667 721.269333,381.222667 721.269333,380.356 C721.269333,378.553333 719.804,377.086667 717.998667,377.086667 L717.998667,377.086667 Z M717.184,372.048 L695.678667,372.048 L692.274667,358.430667 L720.592,358.430667 L717.184,372.048 L717.184,372.048 Z M721.850667,353.389333 L720.965333,356.930667 L691.897333,356.930667 L691.012,353.389333 L721.850667,353.389333 L721.850667,353.389333 Z M696.861333,380.36 C696.864,380.826667 696.678667,381.272 696.348,381.608 C696.012,381.941333 695.566667,382.124 695.096,382.124 L695.085333,382.124 C694.116,382.124 693.322667,381.332 693.322667,380.353333 C693.322667,379.884 693.505333,379.438667 693.838667,379.105333 C694.174667,378.772 694.62,378.589333 695.096,378.589333 C696.069333,378.589333 696.861333,379.381333 696.861333,380.36 L696.861333,380.36 Z M719.253333,381.608 C718.917333,381.941333 718.472,382.124 718.005333,382.124 L717.992,382.124 C717.02,382.124 716.226667,381.332 716.226667,380.353333 C716.226667,379.884 716.409333,379.438667 716.742667,379.105333 C717.078667,378.772 717.526667,378.589333 718.005333,378.589333 C718.977333,378.589333 719.768,379.381333 719.768,380.36 C719.769333,380.826667 719.589333,381.272 719.253333,381.608 L719.253333,381.608 Z" id="Shopping-cart-2"></path>
        </g>
    </g>
</svg>